<svg xmlns="http://www.w3.org/2000/svg" width="490" height="360" viewBox="0 0 490 360">
  <g id="Group_2" data-name="Group 2" transform="translate(0)">
    <ellipse id="Ellipse_1" data-name="Ellipse 1" cx="122.952" cy="20.652" rx="122.952" ry="20.652" transform="translate(121.099 317.214)" fill="#dee3f3" opacity="0.5"/>
    <g id="Group_1" data-name="Group 1" transform="translate(0 56.399)" opacity="0.45">
      <path id="Path_1" data-name="Path 1" d="M536.5,332.707a5.349,5.349,0,0,0,.049.69,5.328,5.328,0,0,1-.049-.69Z" transform="translate(-321.753 -265.212)" fill="#6c63ff"/>
      <path id="Path_2" data-name="Path 2" d="M665.418,301.82c.009.062.021.122.028.185C665.439,301.942,665.428,301.881,665.418,301.82Z" transform="translate(-389.252 -249.159)" fill="#6c63ff"/>
      <path id="Path_3" data-name="Path 3" d="M665.15,300.546c.018.064.034.128.05.194C665.185,300.674,665.168,300.61,665.15,300.546Z" transform="translate(-389.112 -248.497)" fill="#6c63ff"/>
      <path id="Path_4" data-name="Path 4" d="M665.2,335.124c-.024.106-.051.211-.081.314C665.146,335.334,665.173,335.23,665.2,335.124Z" transform="translate(-389.095 -266.468)" fill="#6c63ff"/>
      <path id="Path_5" data-name="Path 5" d="M665.409,334.069c-.014.113-.03.224-.051.335C665.378,334.293,665.395,334.182,665.409,334.069Z" transform="translate(-389.221 -265.919)" fill="#6c63ff"/>
      <path id="Path_6" data-name="Path 6" d="M541.233,341.657a5.344,5.344,0,0,1-1.137-.8A5.328,5.328,0,0,0,541.233,341.657Z" transform="translate(-323.639 -269.447)" fill="#6c63ff"/>
      <path id="Path_7" data-name="Path 7" d="M539.518,340.258a5.343,5.343,0,0,1-.454-.481A5.335,5.335,0,0,0,539.518,340.258Z" transform="translate(-323.096 -268.886)" fill="#6c63ff"/>
      <path id="Path_8" data-name="Path 8" d="M730,551.505a5.256,5.256,0,0,0-.226-.618,5.275,5.275,0,0,1,.226.618Z" transform="translate(-422.951 -378.604)" fill="#6c63ff"/>
      <path id="Path_9" data-name="Path 9" d="M724.741,545.507a5.324,5.324,0,0,1,.606.37A5.315,5.315,0,0,0,724.741,545.507Z" transform="translate(-420.316 -375.808)" fill="#6c63ff"/>
      <path id="Path_10" data-name="Path 10" d="M727.219,547.272a5.351,5.351,0,0,1,.849,1.027,5.34,5.34,0,0,0-.849-1.027Z" transform="translate(-421.615 -376.725)" fill="#6c63ff"/>
      <path id="Path_11" data-name="Path 11" d="M726.041,546.3a5.359,5.359,0,0,1,.5.409,5.326,5.326,0,0,0-.5-.409Z" transform="translate(-420.997 -376.223)" fill="#6c63ff"/>
      <path id="Path_12" data-name="Path 12" d="M729.394,550.147a5.3,5.3,0,0,0-.266-.5A5.3,5.3,0,0,1,729.394,550.147Z" transform="translate(-422.611 -377.958)" fill="#6c63ff"/>
      <path id="Path_13" data-name="Path 13" d="M730.431,552.971a5.256,5.256,0,0,0-.113-.526A5.29,5.29,0,0,1,730.431,552.971Z" transform="translate(-423.234 -379.414)" fill="#6c63ff"/>
      <path id="Path_14" data-name="Path 14" d="M857.017,336.6H826.446a5.31,5.31,0,0,0,2.287-4.367V318.2a5.319,5.319,0,0,0-5.319-5.319H788.227a5.32,5.32,0,0,0,3.7-5.067V293.776a5.31,5.31,0,0,0-2.287-4.367h33.773a5.319,5.319,0,0,0,5.319-5.319V270.055a5.319,5.319,0,0,0-5.319-5.319h-37.6a5.32,5.32,0,0,0,3.7-5.067V245.634a5.31,5.31,0,0,0-2.287-4.367h36.18a5.319,5.319,0,0,0,5.319-5.319V221.913a5.319,5.319,0,0,0-5.319-5.319h-18.94a5.32,5.32,0,0,0,3.7-5.067V197.492a5.319,5.319,0,0,0-5.319-5.319H751.513a5.319,5.319,0,0,0-5.319,5.319,5.319,5.319,0,0,0-5.319-5.319H689.531a5.315,5.315,0,0,0-4.82,3.08,5.334,5.334,0,0,1,.1,1.036v14.035a5.29,5.29,0,0,1-.5,2.235,5.309,5.309,0,0,0,1.851,3.083h13.186a5.3,5.3,0,0,1,3.369,1.2h5.749a5.32,5.32,0,0,0-3.7,5.067,5.325,5.325,0,0,0-.1-1.008c0,.019,0,.037,0,.056V235a5.315,5.315,0,0,1-.173,1.326,1.938,1.938,0,0,1,.228.294,5.34,5.34,0,0,0,.042-.668,5.314,5.314,0,0,0,.089.919,1.569,1.569,0,0,1,.119.533,5.327,5.327,0,0,0,2.079,2.916h-4.574c.041-.029.077-.063.118-.092-.425.011-.853-.036-1.278-.041a1.181,1.181,0,0,1-.442-.092,5.314,5.314,0,0,1-1.526.225l-31.509.952a5.31,5.31,0,0,0-2.287,4.367v14.035a5.319,5.319,0,0,0,3.7,5.067l30.095.252a5.316,5.316,0,0,1,1.561.234,5.816,5.816,0,0,1,.994.175c.025-.006.05-.008.075-.013a5.281,5.281,0,0,0-.917-.4h7.4a5.32,5.32,0,0,0-3.7,5.067,5.336,5.336,0,0,0-.081-.92,1.181,1.181,0,0,1-.117.143,5.338,5.338,0,0,1,.1,1.029v14.035c0,.651.1.495.1-.252a5.31,5.31,0,0,0,2.287,4.367l18.775.6a5.3,5.3,0,0,1,1.884.35h4.518a5.34,5.34,0,0,0-1.838,2.249,5.286,5.286,0,0,1,.754,2.72v14.035a5.3,5.3,0,0,1-.446,2.13,5.332,5.332,0,0,0,2.945,2.336h-4.934a5.288,5.288,0,0,1-2.884.854H707.205a5.308,5.308,0,0,0-2.437,4.465c0-1.874-.7,16.6-.7,16.6,0,1.659,28.982,2.407,28.982,2.407a5.3,5.3,0,0,1,2.139.451,3.72,3.72,0,0,1,.92-.079l-.028-.022h4.574a5.31,5.31,0,0,0-2.287,4.367,5.328,5.328,0,0,0-.059-.758c-.025.058-.051.115-.08.169a5.321,5.321,0,0,1,.139,1.191v13.433a5.319,5.319,0,0,0,5.319,5.319H735.5a5.29,5.29,0,0,1-2.452.6H699.715a5.315,5.315,0,0,0-2.867,4.717v14.035a5.319,5.319,0,0,0,5.319,5.319h51.345a5.319,5.319,0,0,0,5.319-5.319,5.319,5.319,0,0,0,5.319,5.319h51.344a5.319,5.319,0,0,0,5.319-5.319V366.589a5.319,5.319,0,0,0-5.319-5.319h41.523a5.319,5.319,0,0,0,5.319-5.319V341.917a5.319,5.319,0,0,0-5.319-5.319ZM729.826,241.267a5.31,5.31,0,0,0-2.287,4.367,5.31,5.31,0,0,0-2.287-4.367Zm-5.989,23.469a5.32,5.32,0,0,0,3.7-5.067,5.319,5.319,0,0,0,3.7,5.067Zm18.655-48.141a5.32,5.32,0,0,0,3.7-5.067,5.319,5.319,0,0,0,3.7,5.067Zm16.339,150a5.319,5.319,0,0,0-5.319-5.319H764.15a5.319,5.319,0,0,0-5.319,5.319Zm5.632-29.991a5.31,5.31,0,0,0,2.287-4.367,5.31,5.31,0,0,0,2.287,4.367Zm2.287-18.4a5.32,5.32,0,0,0-3.7-5.067h7.4a5.32,5.32,0,0,0-3.7,5.067Zm-2.287-29.739a5.31,5.31,0,0,0,2.287-4.367,5.311,5.311,0,0,0,2.287,4.367Zm2.287-18.4a5.319,5.319,0,0,0-3.7-5.066h7.4a5.32,5.32,0,0,0-3.7,5.067Zm-2.287-29.739a5.31,5.31,0,0,0,2.287-4.367,5.311,5.311,0,0,0,2.287,4.367Zm2.287-18.4a5.32,5.32,0,0,0-3.7-5.066h7.4a5.32,5.32,0,0,0-3.7,5.067Zm35.89,115.637a5.31,5.31,0,0,0-2.287,4.367,5.31,5.31,0,0,0-2.287-4.367Zm-7.606,23.721a5.319,5.319,0,0,0,5.319-5.319,5.319,5.319,0,0,0,5.319,5.319Z" transform="translate(-391.063 -192.174)" fill="#6c63ff"/>
      <path id="Path_15" data-name="Path 15" d="M747.2,483.79" transform="translate(-432.072 -343.732)" fill="#6c63ff"/>
      <path id="Path_16" data-name="Path 16" d="M730.658,554.6a5.348,5.348,0,0,0-.048-.677,5.336,5.336,0,0,1,.048.677Z" transform="translate(-423.387 -380.179)" fill="#6c63ff"/>
      <path id="Path_17" data-name="Path 17" d="M665.53,332.707c0,.169-.01.335-.025.5C665.52,333.042,665.53,332.876,665.53,332.707Z" transform="translate(-389.298 -265.212)" fill="#6c63ff"/>
      <path id="Path_18" data-name="Path 18" d="M536.63,334.358a5.275,5.275,0,0,0,.136.633A5.275,5.275,0,0,1,536.63,334.358Z" transform="translate(-321.82 -266.07)" fill="#6c63ff"/>
      <path id="Path_19" data-name="Path 19" d="M412.282,398.882a1.21,1.21,0,0,1-.227-.269,1.3,1.3,0,0,1-.151-.444,10.753,10.753,0,0,0,.016,1.094,5.282,5.282,0,0,1,.247,1.573,5.284,5.284,0,0,1,.233-1.53,2.2,2.2,0,0,1-.112-.372C412.285,398.916,412.285,398.9,412.282,398.882Z" transform="translate(-256.512 -299.234)" fill="#6c63ff"/>
      <path id="Path_20" data-name="Path 20" d="M348.622,192.174H297.278a5.319,5.319,0,0,0-5.319,5.319,5.319,5.319,0,0,0-5.319-5.319H235.3a5.319,5.319,0,0,0-5.319,5.319v14.035a5.32,5.32,0,0,0,3.7,5.067H193.87a5.319,5.319,0,0,0-5.319,5.319v14.035a5.31,5.31,0,0,0,2.287,4.367h-36.18a5.319,5.319,0,0,0-5.319,5.319v14.035a5.319,5.319,0,0,0,5.319,5.319h37.595a5.32,5.32,0,0,0-3.7,5.067V284.09a5.31,5.31,0,0,0,2.287,4.367H157.066a5.319,5.319,0,0,0-5.319,5.319v14.035a5.319,5.319,0,0,0,5.319,5.319h35.188a5.32,5.32,0,0,0-3.7,5.067v14.035a5.319,5.319,0,0,0,5.319,5.319h30.571a5.31,5.31,0,0,0-2.287,4.367v14.035a5.319,5.319,0,0,0,5.319,5.319H185.951a5.319,5.319,0,0,0-5.319,5.319v14.035a5.319,5.319,0,0,0,5.319,5.319h51.344a5.319,5.319,0,0,0,5.319-5.319,5.319,5.319,0,0,0,5.319,5.319h51.344a5.319,5.319,0,0,0,5.319-5.319V366.59a5.315,5.315,0,0,0-2.866-4.717H290.658a5.292,5.292,0,0,1-2.453-.6h-9.388a5.319,5.319,0,0,0,5.319-5.319c0,2.314,1.2-13.433,1.2-13.433a5.319,5.319,0,0,1,5.319-5.319l19.57-.6a5.354,5.354,0,0,0,1.409-1.455,5.284,5.284,0,0,1-.422-2.059V319.05a5.291,5.291,0,0,1,.88-2.927,5.334,5.334,0,0,0-2.017-2.392H282.233a5.289,5.289,0,0,1-2.884-.854h-7.34a5.32,5.32,0,0,0,3.7-5.067l-.189-13.932c0-.628-.033-1.183-.058-1.675a5.328,5.328,0,0,0-2.04-2.794H278c-.034.024-.065.053-.1.078,2.593-.149,32.215-1.886,34.623-3.824a4.177,4.177,0,0,1-.035-1.113,5.339,5.339,0,0,1-.068-.809V269.705c0-.174.01-.346.026-.516a5.325,5.325,0,0,0-3.632-4.2h6.473a5.291,5.291,0,0,1,2.452-.6h14.681a5.314,5.314,0,0,0,2.867-4.717V245.634A5.31,5.31,0,0,0,333,241.267l-15.261-.952c-2.586,0-4.3-.947-2.935,0h-4.575a5.309,5.309,0,0,0,2.285-4.336,5.343,5.343,0,0,1-.094-.983V220.962c0-.012,0-.023,0-.034a5.324,5.324,0,0,0-3.607-4.081h5.556a5.3,5.3,0,0,1,3.368-1.2h34.248a5.3,5.3,0,0,0,1.955-4.115V197.493a5.319,5.319,0,0,0-5.318-5.319ZM213.609,241.267a5.31,5.31,0,0,0-2.287,4.367,5.31,5.31,0,0,0-2.287-4.367Zm-2.287,18.4a5.319,5.319,0,0,0,3.7,5.067h-7.4a5.32,5.32,0,0,0,3.7-5.067Zm4.694,29.739a5.31,5.31,0,0,0-2.287,4.367,5.31,5.31,0,0,0-2.287-4.367Zm-5.989,23.469a5.32,5.32,0,0,0,3.7-5.067,5.32,5.32,0,0,0,3.7,5.067Zm65.564-71.61a5.31,5.31,0,0,0-2.287,4.367,5.31,5.31,0,0,0-2.287-4.367ZM242.614,366.59a5.319,5.319,0,0,0-5.319-5.319h10.638a5.319,5.319,0,0,0-5.319,5.319Zm5.632-29.991a5.31,5.31,0,0,0,2.287-4.367,5.31,5.31,0,0,0,2.287,4.367Zm2.287-18.4a5.319,5.319,0,0,0-3.7-5.066h7.4a5.32,5.32,0,0,0-3.7,5.067Zm-2.287-29.739a5.31,5.31,0,0,0,2.287-4.367,5.31,5.31,0,0,0,2.287,4.367Zm2.287-18.4a5.32,5.32,0,0,0-3.7-5.066h7.4a5.32,5.32,0,0,0-3.7,5.067Zm-2.287-29.739a5.31,5.31,0,0,0,2.287-4.367,5.31,5.31,0,0,0,2.287,4.367Zm2.287-18.4a5.319,5.319,0,0,0-3.7-5.066h7.4a5.32,5.32,0,0,0-3.7,5.067ZM269.6,264.736a5.32,5.32,0,0,0,3.7-5.067,5.319,5.319,0,0,0,3.7,5.067Zm18.655-48.141a5.32,5.32,0,0,0,3.7-5.067,5.319,5.319,0,0,0,3.7,5.067Z" transform="translate(-118.791 -192.174)" fill="#6c63ff"/>
      <path id="Path_21" data-name="Path 21" d="M540.143,295.219l.076-.069Z" transform="translate(-323.66 -245.692)" fill="#6c63ff"/>
      <path id="Path_22" data-name="Path 22" d="M539.322,296.027c-.026.029-.053.057-.078.086C539.27,296.084,539.3,296.055,539.322,296.027Z" transform="translate(-323.189 -246.148)" fill="#6c63ff"/>
      <path id="Path_23" data-name="Path 23" d="M538.478,297.125c.012-.017.026-.034.038-.051C538.5,297.091,538.49,297.108,538.478,297.125Z" transform="translate(-322.788 -246.693)" fill="#6c63ff"/>
      <path id="Path_24" data-name="Path 24" d="M536.979,335.9a5.259,5.259,0,0,0,.222.608,5.271,5.271,0,0,1-.222-.608Z" transform="translate(-322.003 -266.872)" fill="#6c63ff"/>
      <path id="Path_25" data-name="Path 25" d="M538.16,338.53a5.327,5.327,0,0,0,.393.548A5.32,5.32,0,0,1,538.16,338.53Z" transform="translate(-322.622 -268.238)" fill="#6c63ff"/>
      <path id="Path_26" data-name="Path 26" d="M537.5,337.283a5.3,5.3,0,0,0,.315.594A5.278,5.278,0,0,1,537.5,337.283Z" transform="translate(-322.275 -267.59)" fill="#6c63ff"/>
      <path id="Path_27" data-name="Path 27" d="M536.806,300.74c.015-.065.032-.129.05-.194C536.838,300.61,536.821,300.674,536.806,300.74Z" transform="translate(-321.912 -248.497)" fill="#6c63ff"/>
      <path id="Path_28" data-name="Path 28" d="M537.18,299.529c.019-.053.037-.106.058-.159C537.217,299.423,537.2,299.477,537.18,299.529Z" transform="translate(-322.108 -247.886)" fill="#6c63ff"/>
      <path id="Path_29" data-name="Path 29" d="M536.582,302c.007-.062.019-.123.028-.185C536.6,301.881,536.589,301.942,536.582,302Z" transform="translate(-321.795 -249.159)" fill="#6c63ff"/>
      <path id="Path_30" data-name="Path 30" d="M537.79,298.289l.009-.019Z" transform="translate(-322.427 -247.314)" fill="#6c63ff"/>
      <rect id="Rectangle_7" data-name="Rectangle 7" width="61.982" height="24.673" rx="8.839" transform="translate(172.738 24.673) rotate(180)" opacity="0.1"/>
      <rect id="Rectangle_8" data-name="Rectangle 8" width="61.982" height="24.673" rx="8.839" transform="translate(356.375 24.673) rotate(180)" opacity="0.1"/>
      <rect id="Rectangle_9" data-name="Rectangle 9" width="61.982" height="24.673" rx="8.839" transform="translate(437.573 48.743) rotate(180)" opacity="0.1"/>
      <rect id="Rectangle_10" data-name="Rectangle 10" width="61.982" height="24.673" rx="8.839" transform="translate(337.892 72.814) rotate(180)" opacity="0.1"/>
      <rect id="Rectangle_11" data-name="Rectangle 11" width="61.982" height="24.673" rx="8.839" transform="translate(437.573 97.487) rotate(180)" opacity="0.1"/>
      <rect id="Rectangle_12" data-name="Rectangle 12" width="61.982" height="24.673" rx="8.839" transform="translate(437.573 145.628) rotate(180)" opacity="0.1"/>
      <path id="Path_31" data-name="Path 31" d="M875.274,494.136H821.036a3.872,3.872,0,0,0-3.715,2.787,2.475,2.475,0,0,1-.044.653,2.749,2.749,0,0,1-.11.371c0,.021,0,.041,0,.062v16.928a3.872,3.872,0,0,0,3.872,3.872h54.237a3.872,3.872,0,0,0,3.872-3.872V498.008A3.872,3.872,0,0,0,875.274,494.136Z" transform="translate(-469.112 -349.109)" opacity="0.1"/>
      <rect id="Rectangle_13" data-name="Rectangle 13" width="61.982" height="24.673" rx="8.839" transform="translate(368.895 193.769) rotate(180)" opacity="0.1"/>
      <rect id="Rectangle_14" data-name="Rectangle 14" width="61.982" height="24.673" rx="8.839" transform="translate(192.414 48.743) rotate(180)" opacity="0.1"/>
      <rect id="Rectangle_15" data-name="Rectangle 15" width="61.982" height="24.673" rx="8.839" transform="translate(154.256 72.814) rotate(180)" opacity="0.1"/>
      <rect id="Rectangle_16" data-name="Rectangle 16" width="61.982" height="24.673" rx="8.839" transform="translate(131.645 97.487) rotate(180)" opacity="0.1"/>
      <rect id="Rectangle_17" data-name="Rectangle 17" width="61.982" height="24.673" rx="8.839" transform="translate(156.044 121.558) rotate(180)" opacity="0.1"/>
      <rect id="Rectangle_18" data-name="Rectangle 18" width="61.982" height="24.673" rx="8.839" transform="translate(131.645 145.628) rotate(180)" opacity="0.1"/>
      <rect id="Rectangle_19" data-name="Rectangle 19" width="61.982" height="24.673" rx="8.839" transform="translate(103.605 169.726) rotate(180)" fill="#6c63ff"/>
      <rect id="Rectangle_20" data-name="Rectangle 20" width="61.982" height="24.673" rx="8.839" transform="translate(461.522 121.531) rotate(180)" fill="#6c63ff"/>
      <rect id="Rectangle_21" data-name="Rectangle 21" width="61.982" height="24.673" rx="8.839" transform="translate(458.893 72.898) rotate(180)" fill="#6c63ff"/>
      <rect id="Rectangle_22" data-name="Rectangle 22" width="61.982" height="24.673" rx="8.839" transform="translate(490 193.385) rotate(180)" fill="#6c63ff"/>
      <rect id="Rectangle_23" data-name="Rectangle 23" width="61.982" height="24.673" rx="8.839" transform="translate(61.982 193.823) rotate(180)" fill="#6c63ff"/>
      <rect id="Rectangle_24" data-name="Rectangle 24" width="61.982" height="24.673" rx="8.839" transform="translate(70.307 145.19) rotate(180)" fill="#6c63ff"/>
      <rect id="Rectangle_25" data-name="Rectangle 25" width="61.982" height="24.673" rx="8.839" transform="translate(70.307 97.433) rotate(180)" fill="#6c63ff"/>
      <rect id="Rectangle_26" data-name="Rectangle 26" width="61.982" height="24.673" rx="8.839" transform="translate(72.497 48.801) rotate(180)" fill="#6c63ff"/>
      <rect id="Rectangle_27" data-name="Rectangle 27" width="61.982" height="24.673" rx="8.839" transform="translate(72.497 48.801) rotate(180)" opacity="0.1"/>
      <rect id="Rectangle_28" data-name="Rectangle 28" width="61.982" height="24.673" rx="8.839" transform="translate(111.929 24.703) rotate(180)" fill="#6c63ff"/>
      <rect id="Rectangle_29" data-name="Rectangle 29" width="61.982" height="24.673" rx="8.839" transform="translate(164.988 169.699) rotate(180)" opacity="0.1"/>
      <rect id="Rectangle_30" data-name="Rectangle 30" width="61.982" height="24.673" rx="8.839" transform="translate(123.823 193.769) rotate(180)" opacity="0.1"/>
    </g>
    <circle id="Ellipse_2" data-name="Ellipse 2" cx="13.89" cy="13.89" r="13.89" transform="translate(372.092 0)" fill="#6c63ff" opacity="0.5"/>
    <path id="Path_32" data-name="Path 32" d="M301.2,150.087h-3.3a2.313,2.313,0,0,0,0-4.627H271.125a2.313,2.313,0,0,0,0,4.627h3.3a2.313,2.313,0,0,0,0,4.627H269.8a2.313,2.313,0,0,0,0,4.627h26.768a2.313,2.313,0,1,0,0-4.627H301.2a2.313,2.313,0,1,0,0-4.627Z" transform="translate(-180.956 -111.014)" fill="#dee3f3" opacity="0.5"/>
    <path id="Path_33" data-name="Path 33" d="M864.644,95.374h-2.515a1.761,1.761,0,0,0,0-3.521H841.757a1.761,1.761,0,0,0,0,3.521h2.515a1.761,1.761,0,1,0,0,3.521h-3.521a1.761,1.761,0,1,0,0,3.521h20.372a1.761,1.761,0,1,0,0-3.521h3.521a1.761,1.761,0,1,0,0-3.521Z" transform="translate(-480.304 -83.153)" fill="#dee3f3" opacity="0.5"/>
    <path id="Path_34" data-name="Path 34" d="M433.2,82.087h-3.3a2.313,2.313,0,1,0,0-4.627H403.125a2.313,2.313,0,0,0,0,4.627h3.3a2.313,2.313,0,0,0,0,4.627H401.8a2.313,2.313,0,0,0,0,4.627h26.768a2.313,2.313,0,1,0,0-4.627H433.2a2.313,2.313,0,1,0,0-4.627Z" transform="translate(-250.11 -75.673)" fill="#dee3f3" opacity="0.5"/>
    <rect id="Rectangle_31" data-name="Rectangle 31" width="111.429" height="51.678" rx="12.97" transform="translate(179.611 126.567)" fill="#008fd5"/>
    <rect id="Rectangle_32" data-name="Rectangle 32" width="93.665" height="0.969" transform="translate(188.488 170.222)" opacity="0.1"/>
    <path id="Path_128" data-name="Path 128" d="M0,0H93.665V35.528H0Z" transform="translate(188.488 134.635)" fill="#fff" opacity="0.3"/>
    <circle id="Ellipse_3" data-name="Ellipse 3" cx="12.919" cy="12.919" r="12.919" transform="translate(197.569 140.215)" opacity="0.1"/>
    <circle id="Ellipse_4" data-name="Ellipse 4" cx="12.919" cy="12.919" r="12.919" transform="translate(247.206 140.215)" opacity="0.1"/>
    <rect id="Rectangle_34" data-name="Rectangle 34" width="19.378" height="11.307" transform="translate(225.616 178.1)" fill="#6c63ff"/>
    <rect id="Rectangle_35" data-name="Rectangle 35" width="80.746" height="64.597" transform="translate(194.945 186.007)" fill="#008fd5"/>
    <rect id="Rectangle_36" data-name="Rectangle 36" width="83.976" height="8.075" transform="translate(193.331 263.355)" fill="#008fd5"/>
    <path id="Path_35" data-name="Path 35" d="M435.067,595.479v37.143H449.6V584.175H435.067Z" transform="translate(-227.849 -305.028)" fill="#008fd5"/>
    <path id="Path_36" data-name="Path 36" d="M525.853,584.175v48.447h14.534V584.175Z" transform="translate(-275.394 -305.028)" fill="#008fd5"/>
    <path id="Path_37" data-name="Path 37" d="M433.8,493.155v14.937a21.848,21.848,0,0,0-10.736,5.175,25.4,25.4,0,0,0-6.391,9.372,47.61,47.61,0,0,0-3.147,14.307,81.8,81.8,0,0,0,.893,19.193H398.267a110.238,110.238,0,0,1,.423-23.163,61.473,61.473,0,0,1,5.183-18.359c4.679-9.813,11.333-15.137,17.18-18.029A31.73,31.73,0,0,1,433.8,493.155Z" transform="translate(-249.257 -292.677)" fill="#008fd5"/>
    <rect id="Rectangle_37" data-name="Rectangle 37" width="14.534" height="11.304" transform="translate(207.218 279.429)" opacity="0.3"/>
    <rect id="Rectangle_38" data-name="Rectangle 38" width="14.534" height="14.534" transform="translate(207.218 300.141)" opacity="0.3"/>
    <rect id="Rectangle_39" data-name="Rectangle 39" width="14.534" height="4.845" transform="translate(207.218 322.749)" opacity="0.3"/>
    <rect id="Rectangle_40" data-name="Rectangle 40" width="14.534" height="11.304" transform="translate(250.459 279.429)" opacity="0.3"/>
    <rect id="Rectangle_41" data-name="Rectangle 41" width="14.534" height="14.534" transform="translate(250.459 300.141)" opacity="0.3"/>
    <rect id="Rectangle_42" data-name="Rectangle 42" width="14.534" height="4.845" transform="translate(250.459 322.749)" opacity="0.3"/>
    <path id="Path_38" data-name="Path 38" d="M458.891,493.155v14.937a21.848,21.848,0,0,0-10.736,5.175l-2.009-16.679A31.729,31.729,0,0,1,458.891,493.155Z" transform="translate(-274.479 -292.557)" opacity="0.3"/>
    <path id="Path_39" data-name="Path 39" d="M417.564,545.863a47.609,47.609,0,0,0-3.147,14.306L399.584,556.2a61.473,61.473,0,0,1,5.183-18.359Z" transform="translate(-250.109 -315.876)" opacity="0.3"/>
    <path id="Path_40" data-name="Path 40" d="M686.6,493.155v14.937a21.848,21.848,0,0,1,10.736,5.175,25.4,25.4,0,0,1,6.391,9.372,47.611,47.611,0,0,1,3.147,14.307,81.8,81.8,0,0,1-.893,19.193h16.149a110.238,110.238,0,0,0-.423-23.163,61.473,61.473,0,0,0-5.183-18.359c-4.679-9.813-11.333-15.137-17.18-18.029A31.731,31.731,0,0,0,686.6,493.155Z" transform="translate(-400.528 -292.677)" fill="#008fd5"/>
    <path id="Path_41" data-name="Path 41" d="M686.6,493.155v14.937a21.848,21.848,0,0,1,10.736,5.175l2.009-16.679A31.729,31.729,0,0,0,686.6,493.155Z" transform="translate(-400.407 -292.557)" opacity="0.3"/>
    <path id="Path_42" data-name="Path 42" d="M722.267,545.863a47.609,47.609,0,0,1,3.148,14.306l14.833-3.971a61.473,61.473,0,0,0-5.183-18.359Z" transform="translate(-419.111 -315.876)" opacity="0.3"/>
    <rect id="Rectangle_43" data-name="Rectangle 43" width="19.378" height="1.338" transform="translate(225.616 178.12)" opacity="0.1"/>
    <path id="Path_43" data-name="Path 43" d="M665.068,486.856V513.9a5.635,5.635,0,0,1-1.5-3.833V490.686A5.626,5.626,0,0,1,665.068,486.856Z" transform="translate(-388.29 -289.287)" opacity="0.1"/>
    <path id="Path_44" data-name="Path 44" d="M494.551,486.862v20.246a5.629,5.629,0,0,1-1.505,3.426v-27.1a5.629,5.629,0,0,1,1.505,3.426Z" transform="translate(-299.004 -287.503)" opacity="0.1"/>
    <rect id="Rectangle_44" data-name="Rectangle 44" width="72.67" height="0.956" transform="translate(198.982 250.509)" opacity="0.1"/>
    <rect id="Rectangle_45" data-name="Rectangle 45" width="35.527" height="0.741" transform="translate(197.533 271.421)" opacity="0.1"/>
    <rect id="Rectangle_46" data-name="Rectangle 46" width="35.527" height="0.741" transform="translate(235.956 271.421)" opacity="0.1"/>
    <rect id="Rectangle_47" data-name="Rectangle 47" width="5.561" height="47.824" transform="translate(201.57 78.966)" fill="#008fd5"/>
    <rect id="Rectangle_48" data-name="Rectangle 48" width="5.561" height="47.824" transform="translate(264.816 78.966)" fill="#008fd5"/>
    <circle id="Ellipse_5" data-name="Ellipse 5" cx="6.302" cy="6.302" r="6.302" transform="translate(197.87 73.095)" opacity="0.1"/>
    <circle id="Ellipse_6" data-name="Ellipse 6" cx="6.302" cy="6.302" r="6.302" transform="translate(197.87 72.726)" fill="#008fd5"/>
    <circle id="Ellipse_7" data-name="Ellipse 7" cx="6.302" cy="6.302" r="6.302" transform="translate(261.475 73.095)" opacity="0.1"/>
    <circle id="Ellipse_8" data-name="Ellipse 8" cx="6.302" cy="6.302" r="6.302" transform="translate(261.475 72.726)" fill="#008fd5"/>
    <path id="Path_45" data-name="Path 45" d="M234.09,543.952s18.443,36.2,3.415,56.011,1.366,73.771,1.366,73.771" transform="translate(-161.316 -319.539)" fill="none" stroke="#fc6681" stroke-miterlimit="10" stroke-width="2"/>
    <path id="Path_46" data-name="Path 46" d="M237.547,506.811c0,6.979-5.123,12.637-5.123,12.637s-5.123-5.658-5.123-12.637,5.123-12.637,5.123-12.637S237.547,499.832,237.547,506.811Z" transform="translate(-159.309 -293.101)" fill="#fc6681"/>
    <path id="Path_47" data-name="Path 47" d="M247.093,543.952s-18.443,36.2-3.415,56.011-1.366,73.771-1.366,73.771" transform="translate(-164.756 -319.539)" fill="none" stroke="#ffd037" stroke-miterlimit="10" stroke-width="2"/>
    <path id="Path_48" data-name="Path 48" d="M245.79,506.811c0,6.979,5.123,12.637,5.123,12.637s5.123-5.658,5.123-12.637-5.123-12.637-5.123-12.637S245.79,499.832,245.79,506.811Z" transform="translate(-168.918 -293.101)" fill="#ffd037"/>
    <path id="Path_49" data-name="Path 49" d="M269.645,543.952s18.443,36.2,3.415,56.011,1.366,73.771,1.366,73.771" transform="translate(-180.514 -319.539)" fill="none" stroke="#fc6681" stroke-miterlimit="10" stroke-width="2"/>
    <path id="Path_50" data-name="Path 50" d="M273.1,506.811c0,6.979-5.123,12.637-5.123,12.637s-5.123-5.658-5.123-12.637,5.123-12.637,5.123-12.637S273.1,499.832,273.1,506.811Z" transform="translate(-177.788 -293.101)" fill="#fc6681"/>
    <path id="Path_51" data-name="Path 51" d="M264.735,567.182c-4.838,5.03-12.453,5.555-12.453,5.555s.231-7.629,5.069-12.658,12.453-5.555,12.453-5.555S269.574,562.153,264.735,567.182Z" transform="translate(-172.292 -324.569)" fill="#fc6681"/>
    <path id="Path_52" data-name="Path 52" d="M265.735,619.182c-4.838,5.029-12.453,5.555-12.453,5.555s.231-7.629,5.069-12.658,12.453-5.555,12.453-5.555S270.574,614.153,265.735,619.182Z" transform="translate(-172.812 -351.697)" fill="#fc6681"/>
    <path id="Path_53" data-name="Path 53" d="M211.426,654.8c4.575,5.27,4.416,12.9,4.416,12.9s-7.578-.914-12.153-6.184-4.416-12.9-4.416-12.9S206.851,649.531,211.426,654.8Z" transform="translate(-144.742 -373.661)" fill="#fc6681"/>
    <path id="Path_54" data-name="Path 54" d="M218.955,547.489c5.817,3.855,7.7,11.251,7.7,11.251s-7.546,1.145-13.364-2.711-7.7-11.251-7.7-11.251S213.137,543.633,218.955,547.489Z" transform="translate(-148.026 -319.391)" fill="#fc6681"/>
    <path id="Path_55" data-name="Path 55" d="M282.648,543.952s-18.443,36.2-3.415,56.011-1.366,73.771-1.366,73.771" transform="translate(-183.98 -319.539)" fill="none" stroke="#ffd037" stroke-miterlimit="10" stroke-width="2"/>
    <path id="Path_56" data-name="Path 56" d="M281.345,506.811c0,6.979,5.123,12.637,5.123,12.637s5.123-5.658,5.123-12.637-5.123-12.637-5.123-12.637S281.345,499.832,281.345,506.811Z" transform="translate(-188.17 -293.101)" fill="#ffd037"/>
    <path id="Path_57" data-name="Path 57" d="M278.765,576.149c-4.9,4.971-5.221,12.6-5.221,12.6s7.62-.434,12.519-5.405,5.221-12.6,5.221-12.6S283.664,571.178,278.765,576.149Z" transform="translate(-184.097 -333.03)" fill="#ffd037"/>
    <path id="Path_58" data-name="Path 58" d="M298.765,648.149c-4.9,4.971-5.221,12.6-5.221,12.6s7.62-.434,12.519-5.405,5.221-12.6,5.221-12.6S303.664,643.178,298.765,648.149Z" transform="translate(-194.572 -370.593)" fill="#ffd037"/>
    <path id="Path_59" data-name="Path 59" d="M274.99,618.831s11.1-17.5,26.683-17.875" transform="translate(-184.869 -348.792)" fill="none" stroke="#ffd037" stroke-miterlimit="10" stroke-width="2"/>
    <path id="Path_60" data-name="Path 60" d="M228.116,596.831s-11.1-17.5-26.683-17.875" transform="translate(-145.865 -337.314)" fill="none" stroke="#fc6681" stroke-miterlimit="10" stroke-width="2"/>
    <path id="Path_61" data-name="Path 61" d="M253.99,648.831s11.1-17.5,26.683-17.875" transform="translate(-173.869 -364.443)" fill="none" stroke="#ffd037" stroke-miterlimit="10" stroke-width="2"/>
    <circle id="Ellipse_9" data-name="Ellipse 9" cx="2.882" cy="2.882" r="2.882" transform="translate(113.258 249.195)" fill="#ffd037"/>
    <circle id="Ellipse_10" data-name="Ellipse 10" cx="2.882" cy="2.882" r="2.882" transform="translate(52.954 238.91)" fill="#fc6681"/>
    <path id="Path_62" data-name="Path 62" d="M242.116,660.831s-11.1-17.5-26.683-17.875" transform="translate(-153.141 -370.704)" fill="none" stroke="#fc6681" stroke-miterlimit="10" stroke-width="2"/>
    <circle id="Ellipse_11" data-name="Ellipse 11" cx="2.882" cy="2.882" r="2.882" transform="translate(59.678 269.525)" fill="#fc6681"/>
    <circle id="Ellipse_12" data-name="Ellipse 12" cx="2.882" cy="2.882" r="2.882" transform="translate(103.969 263.785)" fill="#ffd037"/>
    <path id="Path_63" data-name="Path 63" d="M285.1,741.969s-26.753-5.351-33.887-12.485-39.238-19.619-42.8-10.7-48.156,39.238-17.835,44.589,71.342,7.134,80.259,3.567S285.1,741.969,285.1,741.969Z" transform="translate(-134.761 -408.794)" fill="#a8a8a8"/>
    <path id="Path_64" data-name="Path 64" d="M190.581,788.295c30.32,5.351,71.342,7.134,80.259,3.567,6.791-2.716,11.51-15.768,13.376-21.842.565.12.892.186.892.186s-5.351,21.4-14.268,24.97-49.939,1.784-80.259-3.567c-8.752-1.544-11.255-5.172-10.312-9.762C181.017,784.841,184.067,787.146,190.581,788.295Z" transform="translate(-134.768 -437.031)" opacity="0.2"/>
    <path id="Path_65" data-name="Path 65" d="M981.3,557.26s6.41,8.383-2.959,21.039-17.094,23.34-13.971,31.229c0,0,14.135-23.5,25.641-23.833S993.958,571.4,981.3,557.26Z" transform="translate(-545.994 -326.102)" fill="#fc6681"/>
    <path id="Path_66" data-name="Path 66" d="M981.69,557.26a10.386,10.386,0,0,1,1.31,2.629c11.226,13.189,17.206,25.5,6.415,25.806-10.051.287-22.109,18.261-25,22.8a9.734,9.734,0,0,0,.342,1.033S978.9,586.024,990.4,585.7,994.35,571.4,981.69,557.26Z" transform="translate(-546.387 -326.102)" opacity="0.1"/>
    <path id="Path_67" data-name="Path 67" d="M1023.6,577.462c0,2.95-.331,5.342-.74,5.342s-.74-2.392-.74-5.342.413-1.562.822-1.562S1023.6,574.511,1023.6,577.462Z" transform="translate(-576.375 -335.52)" fill="#ffd037"/>
    <path id="Path_68" data-name="Path 68" d="M1028.237,584.65c-2.59,1.412-4.849,2.266-5.044,1.907s1.746-1.794,4.336-3.206,1.569-.384,1.764-.026S1030.825,583.238,1028.237,584.65Z" transform="translate(-576.926 -339.19)" fill="#ffd037"/>
    <path id="Path_69" data-name="Path 69" d="M914.319,557.26s-6.41,8.383,2.959,21.039,17.094,23.34,13.971,31.229c0,0-14.135-23.5-25.641-23.833S901.663,571.4,914.319,557.26Z" transform="translate(-512.873 -326.102)" fill="#fc6681"/>
    <path id="Path_70" data-name="Path 70" d="M914.319,557.26a10.383,10.383,0,0,0-1.31,2.629c-11.226,13.189-17.206,25.5-6.415,25.806,10.051.287,22.109,18.261,25,22.8a9.725,9.725,0,0,1-.342,1.033s-14.135-23.5-25.641-23.833S901.663,571.4,914.319,557.26Z" transform="translate(-512.873 -326.102)" opacity="0.1"/>
    <path id="Path_71" data-name="Path 71" d="M905.074,577.462c0,2.95.331,5.342.74,5.342s.74-2.392.74-5.342-.413-1.562-.822-1.562S905.074,574.511,905.074,577.462Z" transform="translate(-514.744 -335.52)" fill="#ffd037"/>
    <path id="Path_72" data-name="Path 72" d="M894.854,584.65c2.59,1.412,4.849,2.266,5.044,1.907s-1.746-1.794-4.336-3.206-1.569-.384-1.764-.026S892.264,583.238,894.854,584.65Z" transform="translate(-508.601 -339.19)" fill="#ffd037"/>
    <path id="Path_73" data-name="Path 73" d="M909.324,653.324s17.922-.552,23.323-4.4,27.569-8.439,28.909-2.27,26.934,30.679,6.7,30.842-47.015-3.152-52.406-6.436S909.324,653.324,909.324,653.324Z" transform="translate(-517.753 -371.349)" fill="#a8a8a8"/>
    <path id="Path_74" data-name="Path 74" d="M968.618,685.806c-20.234.163-47.015-3.152-52.406-6.436-4.105-2.5-5.741-11.474-6.289-15.614-.379.016-.6.023-.6.023s1.135,14.454,6.526,17.738,32.172,6.6,52.406,6.436c5.841-.047,7.858-2.125,7.748-5.2C975.193,684.609,972.965,685.77,968.618,685.806Z" transform="translate(-517.754 -381.804)" opacity="0.2"/>
  </g>
</svg>
