<svg xmlns="http://www.w3.org/2000/svg" width="490" height="330.186" viewBox="0 0 490 330.186">
  <g id="Group_3" data-name="Group 3" transform="translate(0 0)">
    <path id="Path_76" data-name="Path 76" d="M756.925,233.722,753,237.6l5.218,13.615,7.28-15.094,11.924-68.528-18.339-.511Z" transform="translate(-314.253 -68.623)" fill="#ffb8b8"/>
    <path id="Path_77" data-name="Path 77" d="M691.626,476.464h-9.934l-7.726-87.75h19.316Z" transform="translate(-282.751 -158.572)" fill="#ffb8b8"/>
    <path id="Path_78" data-name="Path 78" d="M759.626,476.464h-9.934l-7.727-87.75h19.316Z" transform="translate(-309.31 -158.572)" fill="#ffb8b8"/>
    <path id="Path_79" data-name="Path 79" d="M922.687,720.191l-14.5-.077a5.851,5.851,0,0,1-2.862-7.288h0a5.851,5.851,0,0,1,4.517-3.717l2.74-.457,2.387-3.038a4.52,4.52,0,0,1,5.937-1.1c2.29,1.453,5.466,1.938,9.382,1.613l3.048,7.443c.6,4.027-2.153,6.683-6.175,7.318h0A7.413,7.413,0,0,1,922.687,720.191Z" transform="translate(-480.064 -390.852)" fill="#707070"/>
    <path id="Path_80" data-name="Path 80" d="M854.687,720.082l-14.5-.077a5.851,5.851,0,0,1-2.862-7.288h0A5.852,5.852,0,0,1,841.838,709l2.74-.457,2.654-3.378a4.117,4.117,0,0,1,5.528-.856c2.3,1.525,5.527,2.036,9.524,1.7l3.048,7.443c.6,4.026-2.153,6.683-6.174,7.318h0A7.412,7.412,0,0,1,854.687,720.082Z" transform="translate(-453.513 -390.743)" fill="#707070"/>
    <circle id="Ellipse_23" data-name="Ellipse 23" cx="14.901" cy="14.901" r="14.901" transform="translate(400.646 15.847)" fill="#ffb8b8"/>
    <path id="Path_81" data-name="Path 81" d="M905.521,253.9l-24.283,1.656c.086-7.858-.257-14.976-2.208-19.316l17.109-5.519C896.3,237.639,899.933,245.5,905.521,253.9Z" transform="translate(-468.45 -194.452)" fill="#ffb8b8"/>
    <path id="Path_82" data-name="Path 82" d="M901.153,372.719l-62.364-4.967c8.321-27.738,5.717-64.06-2.759-91.291a15.713,15.713,0,0,1,10.094-14.674l15.845-6.068,19.868,2.208L898.59,266.3a15.3,15.3,0,0,1,8.453,13.968C900.746,305.455,899.987,337.837,901.153,372.719Z" transform="translate(-449.181 -201.698)" fill="#008fd5"/>
    <path id="Path_83" data-name="Path 83" d="M846.176,308.422l-28.146-4.967,2.423-18.776a23.291,23.291,0,0,1,17.023-19.5l5.39-1.457Z" transform="translate(-445.602 -206.088)" fill="#008fd5"/>
    <path id="Path_84" data-name="Path 84" d="M653.452,237.148l3.311,4.415-4.967,13.8-7.175-17.109-1.656-69.538,18.212,2.208Z" transform="translate(-269.791 -69.224)" fill="#ffb8b8"/>
    <path id="Path_85" data-name="Path 85" d="M925.03,310.422l28.146-4.967-2.423-18.776a23.291,23.291,0,0,0-17.023-19.5l-5.39-1.457Z" transform="translate(-489.063 -206.92)" fill="#008fd5"/>
    <path id="Path_86" data-name="Path 86" d="M902.29,512.564l-23.09,1.1-6.712-32.561-8.15,30.354-24.411.552-4.88-39.22a22.681,22.681,0,0,1,4.88-17.072h0l60.708,2.759Z" transform="translate(-448.663 -285.515)" fill="#707070"/>
    <path id="Path_87" data-name="Path 87" d="M874.308,220.91l11.143-2.11,6.629-11.324a15.056,15.056,0,0,0-1.763-17.633h0a15.056,15.056,0,0,0-13.36-4.877l-14.441,2.063a9.536,9.536,0,0,0-8.082,10.855l9.727,1.655Z" transform="translate(-457.381 -173.882)" fill="#707070"/>
    <ellipse id="Ellipse_24" data-name="Ellipse 24" cx="2.759" cy="3.311" rx="2.759" ry="3.311" transform="translate(407.545 31.575)" fill="#ffb8b8"/>
    <path id="Path_88" data-name="Path 88" d="M298.6,177.219a6.078,6.078,0,0,0-6.071,6.071v110.93a6.078,6.078,0,0,0,6.071,6.071h2.759a6.078,6.078,0,0,0,6.071-6.071V183.29a6.078,6.078,0,0,0-6.071-6.071Z" transform="translate(-228.806 -170.479)" fill="#a8a8a8"/>
    <path id="Path_89" data-name="Path 89" d="M300.617,181.719a3.591,3.591,0,0,0-3.587,3.587v110.93a3.591,3.591,0,0,0,3.587,3.587h2.759a3.591,3.591,0,0,0,3.587-3.587V185.306a3.591,3.591,0,0,0-3.587-3.587Z" transform="translate(-230.822 -172.495)" fill="#fff"/>
    <path id="Path_90" data-name="Path 90" d="M380.6,177.219a6.078,6.078,0,0,0-6.071,6.071v110.93a6.078,6.078,0,0,0,6.071,6.071h2.759a6.078,6.078,0,0,0,6.071-6.071V183.29a6.078,6.078,0,0,0-6.071-6.071Z" transform="translate(-259.963 -170.479)" fill="#a8a8a8"/>
    <path id="Path_91" data-name="Path 91" d="M382.617,181.719a3.591,3.591,0,0,0-3.587,3.587v110.93a3.591,3.591,0,0,0,3.587,3.587h2.759a3.591,3.591,0,0,0,3.587-3.587V185.306a3.591,3.591,0,0,0-3.587-3.587Z" transform="translate(-261.914 -172.495)" fill="#fff"/>
    <path id="Path_92" data-name="Path 92" d="M462.6,177.219a6.078,6.078,0,0,0-6.071,6.071v110.93a6.078,6.078,0,0,0,6.071,6.071h2.759a6.078,6.078,0,0,0,6.071-6.071V183.29a6.078,6.078,0,0,0-6.071-6.071Z" transform="translate(-294.388 -170.479)" fill="#a8a8a8"/>
    <path id="Path_93" data-name="Path 93" d="M464.617,181.719a3.591,3.591,0,0,0-3.587,3.587v110.93a3.591,3.591,0,0,0,3.587,3.587h2.759a3.591,3.591,0,0,0,3.587-3.587V185.306a3.591,3.591,0,0,0-3.587-3.587Z" transform="translate(-296.364 -172.495)" fill="#fff"/>
    <path id="Path_94" data-name="Path 94" d="M544.6,177.219a6.078,6.078,0,0,0-6.071,6.071v110.93a6.078,6.078,0,0,0,6.071,6.071h2.759a6.078,6.078,0,0,0,6.071-6.071V183.29a6.078,6.078,0,0,0-6.071-6.071Z" transform="translate(-328.812 -170.479)" fill="#a8a8a8"/>
    <path id="Path_95" data-name="Path 95" d="M546.617,181.719a3.591,3.591,0,0,0-3.587,3.587v110.93a3.591,3.591,0,0,0,3.587,3.587h2.759a3.591,3.591,0,0,0,3.587-3.587V185.306a3.591,3.591,0,0,0-3.587-3.587Z" transform="translate(-330.814 -172.495)" fill="#fff"/>
    <path id="Path_96" data-name="Path 96" d="M626.6,177.219a6.078,6.078,0,0,0-6.071,6.071v110.93a6.078,6.078,0,0,0,6.071,6.071h2.759a6.078,6.078,0,0,0,6.071-6.071V183.29a6.078,6.078,0,0,0-6.071-6.071Z" transform="translate(-363.237 -170.479)" fill="#a8a8a8"/>
    <path id="Path_97" data-name="Path 97" d="M628.617,181.719a3.591,3.591,0,0,0-3.587,3.587v110.93a3.591,3.591,0,0,0,3.587,3.587h2.759a3.591,3.591,0,0,0,3.587-3.587V185.306a3.591,3.591,0,0,0-3.587-3.587Z" transform="translate(-365.264 -172.495)" fill="#fff"/>
    <path id="Path_98" data-name="Path 98" d="M303.576,232.363H286.183a5.659,5.659,0,0,1-5.653-5.653v-.87a5.659,5.659,0,0,1,5.653-5.653h17.393a5.659,5.659,0,0,1,5.653,5.653v.87A5.659,5.659,0,0,1,303.576,232.363Z" transform="translate(-223.429 -189.734)" fill="#008fd5"/>
    <path id="Path_99" data-name="Path 99" d="M387.576,265.363H370.183a5.659,5.659,0,0,1-5.653-5.653v-.87a5.659,5.659,0,0,1,5.653-5.653h17.393a5.659,5.659,0,0,1,5.653,5.653v.87a5.659,5.659,0,0,1-5.653,5.653Z" transform="translate(-255.598 -204.521)" fill="#008fd5"/>
    <path id="Path_100" data-name="Path 100" d="M467.576,330.363H450.183a5.659,5.659,0,0,1-5.653-5.653v-.87a5.659,5.659,0,0,1,5.653-5.653h17.393a5.659,5.659,0,0,1,5.653,5.653v.87a5.659,5.659,0,0,1-5.653,5.653Z" transform="translate(-289.112 -229.283)" fill="#008fd5"/>
    <path id="Path_101" data-name="Path 101" d="M549.576,212.363H532.183a5.659,5.659,0,0,1-5.653-5.653v-.87a5.659,5.659,0,0,1,5.653-5.653h17.393a5.659,5.659,0,0,1,5.653,5.653v.87A5.659,5.659,0,0,1,549.576,212.363Z" transform="translate(-323.463 -180.771)" fill="#008fd5"/>
    <path id="Path_102" data-name="Path 102" d="M631.576,290.363H614.183a5.659,5.659,0,0,1-5.653-5.653v-.87a5.659,5.659,0,0,1,5.653-5.653h17.393a5.659,5.659,0,0,1,5.653,5.653v.87A5.659,5.659,0,0,1,631.576,290.363Z" transform="translate(-357.815 -212.499)" fill="#008fd5"/>
    <path id="Path_103" data-name="Path 103" d="M725.65,569.01H578.074V567.8H725.868Z" transform="translate(-235.868 -238.824)" fill="#707070"/>
    <circle id="Ellipse_25" data-name="Ellipse 25" cx="7.175" cy="7.175" r="7.175" transform="translate(64.276 152.24)" fill="#a8a8a8"/>
    <circle id="Ellipse_26" data-name="Ellipse 26" cx="7.175" cy="7.175" r="7.175" transform="translate(115.141 152.24)" fill="#a8a8a8"/>
    <circle id="Ellipse_27" data-name="Ellipse 27" cx="7.175" cy="7.175" r="7.175" transform="translate(162.713 152.24)" fill="#a8a8a8"/>
    <circle id="Ellipse_28" data-name="Ellipse 28" cx="7.175" cy="7.175" r="7.175" transform="translate(210.286 152.24)" fill="#a8a8a8"/>
    <circle id="Ellipse_29" data-name="Ellipse 29" cx="7.175" cy="7.175" r="7.175" transform="translate(257.858 152.24)" fill="#a8a8a8"/>
    <path id="Path_104" data-name="Path 104" d="M192.957,165.005A15.892,15.892,0,1,0,208.849,180.9,15.892,15.892,0,0,0,192.957,165.005Zm0,29.437A13.545,13.545,0,1,1,206.5,180.9a13.545,13.545,0,0,1-13.545,13.545Z" transform="translate(-177.065 -165.005)" fill="#008fd5"/>
    <path id="Path_105" data-name="Path 105" d="M199.913,194.118a.838.838,0,0,1-.593-.246l-4.528-4.528a.838.838,0,1,1,1.186-1.186L199.814,192l6.8-9.274a.839.839,0,1,1,1.352.992l-7.379,10.062a.839.839,0,0,1-.612.34C199.955,194.117,199.934,194.118,199.913,194.118Z" transform="translate(-184.898 -172.791)" fill="#008fd5"/>
  </g>
</svg>
