<svg id="Group_4" data-name="Group 4" xmlns="http://www.w3.org/2000/svg" width="490" height="319.317" viewBox="0 0 490 319.317">
  <ellipse id="Ellipse_30" data-name="Ellipse 30" cx="67.059" cy="6.646" rx="67.059" ry="6.646" transform="translate(355.881 306.024)" fill="#a8a8a8"/>
  <ellipse id="Ellipse_31" data-name="Ellipse 31" cx="24.017" cy="3.323" rx="24.017" ry="3.323" transform="translate(17.517 306.283)" fill="#a8a8a8"/>
  <rect id="Rectangle_53" data-name="Rectangle 53" width="314.353" height="157.711" fill="#a8a8a8"/>
  <rect id="Rectangle_54" data-name="Rectangle 54" width="285.484" height="132.05" transform="translate(14.435 12.831)" fill="#fff"/>
  <path id="Path_106" data-name="Path 106" d="M26.135,173.161l-.756-.756L63.715,134.07,75.744,146.1l21.117-21.117L122.79,150.91,166.9,106.8l20.048,20.049,43.838-43.839,24.592,24.592,45.064-45.064.756.756-45.82,45.82L230.782,84.526l-43.838,43.838L166.9,108.316,122.79,152.422,96.861,126.493,75.744,147.611,63.715,135.581Z" transform="translate(-11.323 -27.903)" fill="#008fd5"/>
  <circle id="Ellipse_32" data-name="Ellipse 32" cx="6.415" cy="6.415" r="6.415" transform="translate(213.311 50.254)" fill="#008fd5"/>
  <circle id="Ellipse_33" data-name="Ellipse 33" cx="6.415" cy="6.415" r="6.415" transform="translate(79.657 91.953)" fill="#008fd5"/>
  <circle id="Ellipse_34" data-name="Ellipse 34" cx="6.415" cy="6.415" r="6.415" transform="translate(169.473 92.489)" fill="#008fd5"/>
  <circle id="Ellipse_35" data-name="Ellipse 35" cx="6.415" cy="6.415" r="6.415" transform="translate(106.923 116.546)" fill="#008fd5"/>
  <circle id="Ellipse_36" data-name="Ellipse 36" cx="6.415" cy="6.415" r="6.415" transform="translate(148.088 74.311)" fill="#008fd5"/>
  <circle id="Ellipse_37" data-name="Ellipse 37" cx="6.415" cy="6.415" r="6.415" transform="translate(237.369 74.311)" fill="#008fd5"/>
  <path id="Path_107" data-name="Path 107" d="M218.381,675.723c2.6,9.623,11.519,15.582,11.519,15.582s4.7-9.642,2.093-19.264-11.519-15.582-11.519-15.582S215.778,666.1,218.381,675.723Z" transform="translate(-184.392 -382.452)" fill="#a8a8a8"/>
  <path id="Path_108" data-name="Path 108" d="M211.54,681.435c7.143,6.953,8.015,17.642,8.015,17.642s-10.709-.585-17.852-7.538-8.015-17.642-8.015-17.642S204.4,674.481,211.54,681.435Z" transform="translate(-173.727 -390.232)" fill="#008fd5"/>
  <path id="Path_109" data-name="Path 109" d="M872.376,258.993l4.091,40.46h33.671l-1.618-61.5c0-13.237-9.151-24.816-22.388-24.816s-21.849,11.039-21.849,24.276l-2.158,62.039h5.49Z" transform="translate(-471.945 -184.667)" fill="#707070"/>
  <path id="Path_110" data-name="Path 110" d="M913.634,679.013s-1.453,9.2-3.875,10.658,12.6,4.844,12.6,4.844l2.422-14.533Z" transform="translate(-493.078 -392.514)" fill="#fbbebe"/>
  <path id="Path_111" data-name="Path 111" d="M929.039,489.211l5.329,6.3-2.422,21.8-1.938,43.115s3.875,37.3,0,38.271-21.315.484-20.831-1.938.969-4.36,1.938-7.751-.969-15.5-.969-15.5l2.422-13.564-8.72-58.617Z" transform="translate(-490.56 -307.835)" fill="#707070"/>
  <path id="Path_112" data-name="Path 112" d="M899.358,695.285s-5.329-.969-5.813,0-9.689,11.142-11.142,11.142-12.111,9.689-.969,10.173,29.551-8.235,29.551-8.235-2.709-12.327-2.566-11.735S899.358,697.707,899.358,695.285Z" transform="translate(-478.318 -399.582)" fill="#707070"/>
  <path id="Path_113" data-name="Path 113" d="M907.347,649.153s13.564,15.018,14.049,16.471,7.751,0,7.751,0l2.907-9.689-2.422-3.391L916.067,641.4Z" transform="translate(-492.121 -375.734)" fill="#fbbebe"/>
  <path id="Path_114" data-name="Path 114" d="M936.676,667.244l-7.025,6.611s8.962,13.735,8.962,15.188.484,13.564,5.329,11.626,5.329-21.315,5.329-21.315-.484-19.862-3.391-21.315-9.277-.994-9.277-.994S940.551,666.76,936.676,667.244Z" transform="translate(-502.071 -382.683)" fill="#707070"/>
  <path id="Path_115" data-name="Path 115" d="M855.481,409.751s-2.422,7.751-2.907,9.689-3.391,7.267-3.391,15.5.969,17.924,0,18.893-16.471,55.226-9.689,61.039,29.066,25.191,30.52,27.613,1.938,8.235,4.844,7.267,14.049-10.658,14.533-12.6-6.3-5.329-6.3-5.329-13.564-19.862-16.955-19.378-2.907-2.422-2.422-3.875,1.453-2.422,0-2.422-.484-3.875,0-5.813,11.626-28.1,11.626-28.1l29.551-13.08s-1.453-35.364-12.111-45.053l-2.422-5.813S863.232,406.36,855.481,409.751Z" transform="translate(-461.085 -271.491)" fill="#707070"/>
  <path id="Path_116" data-name="Path 116" d="M880.286,273.169s2.422,16.955-3.391,17.924-10.658.484-10.658.969,14.533,15.5,14.533,15.5l13.564-.969,12.111-13.08S895.3,291.578,895.3,284.8s-.484-11.627-.484-11.627Z" transform="translate(-473.78 -211.45)" fill="#ffb8b8"/>
  <circle id="Ellipse_38" data-name="Ellipse 38" cx="15.018" cy="15.018" r="15.018" transform="translate(398.998 38.709)" fill="#ffb8b8"/>
  <path id="Path_117" data-name="Path 117" d="M869.17,303.3s-23.451,2.2-24.9,8.5,9.689,45.537,11.142,48.928a10.715,10.715,0,0,1,.969,5.813,19.167,19.167,0,0,1,15.5-3.391c9.2,1.938,22.284.969,22.284.969s4.36-17.924,5.329-19.862,4.844-12.6,4.844-15.5,5.813-15.018,5.813-15.018-2.907-8.72-13.564-8.235c0,0-4.649-2.081-5.958-.556s-8.576,8.307-17.78,5.4S869.17,303.3,869.17,303.3Z" transform="translate(-463.919 -224.895)" fill="#a8a8a8"/>
  <path id="Path_118" data-name="Path 118" d="M946.707,317.777l9.2,2.422s6.782,24.706,7.267,25.191.969,3.391.969,3.391,0,.484.969,1.938,2.422.484,1.453,2.422-2.422.969-1.453,2.907.484,7.267.484,7.267-2.422-9.2-11.142-6.782l-5.813-26.16Z" transform="translate(-509.681 -231.351)" fill="#a8a8a8"/>
  <path id="Path_119" data-name="Path 119" d="M764.113,159.343l-.033.111-15.957,50.268L737.649,207.4l-11.326-2.514,15.99-51.836Z" transform="translate(-324.044 -68.28)" fill="#008fd5"/>
  <path id="Path_120" data-name="Path 120" d="M845.036,317.777l-9.2,2.422s-6.782,24.706-7.267,25.191-.969,3.391-.969,3.391,0,.484-.969,1.938-2.422.484-1.453,2.422,2.422.969,1.453,2.907-.484,7.267-.484,7.267,2.422-9.2,11.142-6.782l5.813-26.16Z" transform="translate(-455.317 -231.351)" fill="#a8a8a8"/>
  <path id="Path_121" data-name="Path 121" d="M829.906,378.666l-3.026,5.058s-1.334,9.475,5.449,9.475,16.471-9.2,16.471-9.2,4.844-1.938,7.751-1.453,18.893,0,12.111-8.235-18.409,0-18.409,0l-12.111,5.813-6.3-3.391Z" transform="translate(-456.173 -254.938)" fill="#ffb8b8"/>
  <path id="Path_122" data-name="Path 122" d="M833.916,372.538l4.844,7.751s-11.142,1.453-12.111,3.876,4.36-12.6,4.36-12.6Z" transform="translate(-456.065 -255.35)" fill="#a8a8a8"/>
  <path id="Path_123" data-name="Path 123" d="M879.538,238.313c9.756-5.26,13.763-5.037,25.895,0l3.237-7.886a5.607,5.607,0,0,0-5.6-5.6H881.363a5.607,5.607,0,0,0-5.6,5.6Z" transform="translate(-478.029 -189.882)" fill="#707070"/>
  <path id="Path_124" data-name="Path 124" d="M773.2,162.131,757.246,212.4l-10.473-2.326,15.741-51.027Z" transform="translate(-333.168 -70.957)" opacity="0.2"/>
  <path id="Path_125" data-name="Path 125" d="M768.31,159.044l-15.987,51.835,21.8,4.844,15.987-50.382Z" transform="translate(-335.644 -70.956)" fill="#008fd5"/>
  <path id="Path_126" data-name="Path 126" d="M943.015,378.666l3.026,5.058s1.333,9.475-5.449,9.475-16.471-9.2-16.471-9.2-4.844-1.938-7.751-1.453-18.893,0-12.111-8.235,18.409,0,18.409,0l12.111,5.813,6.3-3.391Z" transform="translate(-490.002 -254.938)" fill="#ffb8b8"/>
  <path id="Path_127" data-name="Path 127" d="M964.234,372.538l-4.844,7.751s11.142,1.453,12.111,3.876-4.36-12.6-4.36-12.6Z" transform="translate(-515.339 -255.35)" fill="#a8a8a8"/>
</svg>
